<?xml version="1.0" encoding="UTF-8" standalone="no"?>
<svg
   xmlns:dc="http://purl.org/dc/elements/1.1/"
   xmlns:cc="http://creativecommons.org/ns#"
   xmlns:rdf="http://www.w3.org/1999/02/22-rdf-syntax-ns#"
   xmlns:svg="http://www.w3.org/2000/svg"
   xmlns="http://www.w3.org/2000/svg"
   width="120"
   height="32"
   viewBox="0 0 120 31.999999"
   version="1.1"
   id="svg8">
  <defs
     id="defs2" />
  <metadata
     id="metadata5">
    <rdf:RDF>
      <cc:Work
         rdf:about="">
        <dc:format>image/svg+xml</dc:format>
        <dc:type
           rdf:resource="http://purl.org/dc/dcmitype/StillImage" />
        <dc:title></dc:title>
      </cc:Work>
    </rdf:RDF>
  </metadata>
  <g
     id="layer1">
    <g
       aria-label="windspro"
       id="text839"
       style="font-size:32px;line-height:1.25;font-family:'Berlin Sans FB';-inkscape-font-specification:'Berlin Sans FB';fill:#ffffff">
      <path
         d="m 22.848087,12.255999 q 0,3.264 -0.864,6.24 -0.832,2.944 -1.952,4.8 -1.12,1.824 -1.792,1.824 -0.96,0 -1.824,-1.856 -0.864,-1.856 -1.44,-4.48 -0.544,-2.624 -0.672,-4.768 -0.864,1.664 -1.856,3.776 -0.992,2.08 -1.568,3.552 -0.864,2.272 -1.5360001,4.416 -0.032,0.064 -0.096,0.288 -0.064,0.256 -0.192,0.352 -0.096,0.096 -0.32,0.096 -0.48,0 -0.736,-0.224 -0.224,-0.192 -0.416,-0.64 l -0.256,-1.312 q -0.576,-3.136 -1.216,-5.952 -0.704,-2.912 -1.44,-4.8 -0.736,-1.888 -1.12,-1.888 -0.128,0 -0.384,0.224 -0.256,0.192 -0.48,0.32 -0.224,0.128 -0.384,0.064 -0.384,-0.192 -0.384,-0.448 0,-0.256 0.384,-0.8 0.384,-0.544 0.864,-0.96 0.512,-0.4479995 0.896,-0.4479995 0.288,0 0.48,0.16 0.224,0.128 0.448,0.4159995 0.416,0.544 1.152,2.56 0.736,1.984 1.344,4.832 l 1.312,5.6 q 1.4720001,-4.096 2.6880001,-6.784 1.248,-2.72 2.816,-5.632 0.608,-1.0879995 1.28,-1.0879995 0.448,0 0.736,0.3199995 0.288,0.32 0.288,0.512 0,0.128 -0.16,0.288 -0.16,0.16 -0.256,0.32 -0.256,0.352 -0.416,0.8 -0.128,0.448 -0.128,1.376 0,1.12 0.384,3.52 0.416,2.368 1.088,4.256 0.704,1.888 1.504,1.888 0.48,0 1.184,-1.6 0.704,-1.6 1.216,-3.936 0.544,-2.368 0.544,-4.544 0,-0.448 -0.448,-1.024 -0.352,-0.48 -0.352,-0.704 0,-0.192 0.288,-0.544 0.32,-0.384 0.64,-0.384 0.416,0 0.768,0.672 0.384,0.672 0.384,1.344 z"
         style="font-style:normal;font-variant:normal;font-weight:normal;font-stretch:normal;font-size:32px;font-family:'Ink Free';-inkscape-font-specification:'Ink Free';fill:#ffffff"
         id="path1981" />
      <path
         d="m 28.032066,4.8959995 q 0,0.48 -1.056,0.48 -0.544,0 -1.12,-0.448 -0.544,-0.448 -0.544,-0.736 0,-0.352 0.32,-0.672 0.352,-0.32 0.704,-0.32 0,0 0.224,0.096 0.256,0.064 0.576,0.416 0.256,0.256 0.576,0.672 0.32,0.416 0.32,0.512 z m 0.8,20.1279995 q 0,0.32 -0.288,0.48 -0.256,0.192 -0.608,0.16 -0.448,-0.032 -0.672,-1.44 -0.192,-1.408 -0.416,-5.344 -0.128,-2.592 -0.224,-5.056 -0.096,-2.496 -0.128,-3.8399995 0,-0.352 0.096,-0.512 0.128,-0.192 0.448,-0.192 0.736,0 0.928,0.608 0.192,0.6079995 0.192,2.3359995 l -0.032,3.776 q 0,3.232 0.192,5.184 0,0.096 0.288,2.048 0.224,1.344 0.224,1.792 z"
         style="font-style:normal;font-variant:normal;font-weight:normal;font-stretch:normal;font-size:32px;font-family:'Ink Free';-inkscape-font-specification:'Ink Free';fill:#ffffff"
         id="path1983" />
      <path
         d="m 43.872018,25.151999 q 0,0.384 -0.32,0.64 -0.32,0.288 -0.768,0.288 -0.32,0 -0.544,-0.16 -0.224,-0.128 -0.224,-0.384 0,-1.312 0.192,-4.064 0.192,-2.944 0.192,-4.896 0,-1.888 -0.128,-3.072 -0.096,-1.216 -0.512,-1.216 -1.088,0 -2.4,2.72 -1.28,2.688 -2.944,7.104 l -0.48,1.28 q -0.128,0.32 -0.448,0.512 -0.288,0.192 -0.608,0.192 -0.384,0 -0.512,-0.064 -0.128,-0.064 -0.16,-0.384 l -0.256,-2.624 -0.48,-4.608 q -0.224,-2.752 -0.544,-4.8 -0.096,-0.48 -0.096,-0.736 0,-0.48 0.416,-0.768 0.416,-0.3199995 0.96,-0.3199995 0.32,0 0.448,1.5359995 0.16,1.536 0.32,4.96 l 0.128,1.696 q 0.256,3.232 0.288,4.096 0.096,-0.192 0.16,-0.416 0.096,-0.256 0.224,-0.544 1.728,-4.48 3.232,-7.456 1.536,-3.008 2.944,-3.008 0.992,0 1.344,1.696 0.384,1.664 0.48,4.288 0.096,2.912 0.096,8.512 z"
         style="font-style:normal;font-variant:normal;font-weight:normal;font-stretch:normal;font-size:32px;font-family:'Ink Free';-inkscape-font-specification:'Ink Free';fill:#ffffff"
         id="path1985" />
      <path
         d="m 59.071989,3.0399995 q 0,0.64 -0.064,2.528 -0.064,1.856 -0.064,3.744 0,3.6479995 0.16,7.4559995 0.16,3.776 0.256,4.96 0,0.192 0.032,0.416 0.032,0.224 0.064,0.416 0.128,0.896 0.128,1.088 0,0.32 -0.48,0.608 -0.448,0.288 -0.704,0.288 -0.352,0 -0.48,-0.256 -0.096,-0.288 -0.096,-0.768 0,-1.76 0.096,-3.68 l 0.032,-1.792 q 0,-0.896 -0.032,-2.336 -0.032,-1.472 -0.096,-2.464 -1.632,5.248 -3.712,8.704 -2.048,3.424 -4.448,3.424 -1.088,0 -1.856,-1.024 -0.736,-1.024 -0.736,-2.944 0,-2.528 1.696,-5.504 1.728,-2.976 3.904,-5.12 2.208,-2.1439995 3.264,-2.1439995 1.024,0 1.024,0.672 0,0.448 -0.32,1.0559995 -0.288,0.576 -0.672,1.056 -0.352,0.48 -0.416,0.48 -0.064,0 -0.16,-0.032 -0.064,-0.064 -0.064,-0.128 0,-0.16 0.16,-0.544 0.16,-0.384 0.16,-0.512 0,-0.16 -0.032,-0.224 -0.032,-0.064 -0.192,-0.064 -0.672,0 -2.432,1.856 -1.728,1.824 -3.104,4.352 -1.376,2.528 -1.376,4.704 0,0.768 0.32,1.44 0.32,0.672 1.056,0.672 2.336,0 4.32,-3.936 2.016,-3.968 3.488,-8.992 l -0.064,-2.6879995 q -0.096,-3.552 -0.096,-3.776 0,-1.92 0.16,-2.752 0.064,-0.32 0.128,-0.448 0.096,-0.128 0.352,-0.128 0.32,0 0.64,0.224 0.32,0.192 0.32,0.544 z"
         style="font-style:normal;font-variant:normal;font-weight:normal;font-stretch:normal;font-size:32px;font-family:'Ink Free';-inkscape-font-specification:'Ink Free';fill:#ffffff"
         id="path1987" />
      <path
         d="m 74.33594,20.447999 q 0,1.408 -1.152,2.72 -1.12,1.28 -2.976,2.048 -1.856,0.8 -3.872,0.8 -1.376,0 -1.856,-0.256 -0.48,-0.256 -0.48,-0.704 0,-0.288 0.736,-0.992 0.736,-0.736 0.992,-0.736 0.384,0 0.384,0.16 0,0.128 -0.16,0.256 -0.16,0.128 -0.16,0.224 0,0.128 0.384,0.256 0.416,0.128 0.992,0.128 1.344,0 2.688,-0.48 1.376,-0.512 2.24,-1.312 0.864,-0.8 0.864,-1.696 0,-0.864 -0.544,-1.376 -0.544,-0.512 -1.376,-0.736 -0.8,-0.256 -2.72,-0.704 -2.112,-0.48 -3.296,-0.832 -1.152,-0.384 -1.856,-0.928 -0.704,-0.576 -0.704,-1.44 0,-1.536 1.504,-2.816 1.504,-1.28 3.456,-2.016 1.952,-0.7359995 3.008,-0.7359995 1.088,0 1.088,0.64 0,0.3839995 -0.256,0.8639995 -0.256,0.448 -0.768,0.448 -0.192,0 -0.416,-0.128 -0.224,-0.16 -0.448,-0.16 -0.64,0 -2.016,0.416 -1.376,0.416 -2.496,1.248 -1.12,0.832 -1.12,2.016 0,0.768 0.864,1.152 0.896,0.352 3.296,0.896 0.288,0.096 0.576,0.16 0.288,0.032 0.512,0.096 2.464,0.576 3.776,1.312 1.312,0.736 1.312,2.208 z"
         style="font-style:normal;font-variant:normal;font-weight:normal;font-stretch:normal;font-size:32px;font-family:'Ink Free';-inkscape-font-specification:'Ink Free';fill:#ffffff"
         id="path1989" />
      <path
         d="m 91.23193,17.247999 q 0,2.272 -2.944,3.52 -2.944,1.248 -7.68,1.6 -0.064,2.176 -0.064,3.552 0,1.824 0.16,3.328 0.064,0.576 0.064,0.8 0,0.512 -0.224,0.864 -0.224,0.384 -0.64,0.384 -0.576,0 -0.64,-0.416 -0.032,-0.544 -0.096,-1.696 -0.032,-1.12 -0.032,-2.272 l 0.032,-4.48 q -0.16,0 -0.608,0.032 -0.416,0.032 -0.832,0.032 -0.768,0 -0.768,-1.056 0,-0.768 0.384,-0.768 0.128,0 0.768,0.192 0.64,0.192 1.088,0.192 l -0.032,-9.056 q -0.256,-0.032 -1.056,-0.096 -0.8,-0.096 -1.184,-0.32 -0.352,-0.224 -0.352,-0.64 0,-0.832 0.32,-0.832 0.352,0 0.864,0.256 0.064,0.032 0.384,0.192 0.32,0.128 0.896,0.192 0.192,-0.512 0.352,-0.704 0.192,-0.1919995 0.704,-0.1919995 0.64,0 0.64,0.2559995 0,0.096 -0.096,0.352 -0.096,0.224 -0.096,0.448 1.984,0.288 4.48,1.184 2.528,0.864 4.352,2.208 1.856,1.344 1.856,2.944 z m -1.376,0.128 q 0,-1.344 -1.536,-2.432 -1.536,-1.088 -3.712,-1.792 -2.144,-0.704 -4.128,-1.024 0.064,1.856 0.096,4.928 0.032,3.04 0.032,4.032 1.92,0 4.096,-0.48 2.176,-0.512 3.648,-1.344 1.504,-0.864 1.504,-1.888 z"
         style="font-style:normal;font-variant:normal;font-weight:normal;font-stretch:normal;font-size:32px;font-family:'Ink Free';-inkscape-font-specification:'Ink Free';fill:#ffffff"
         id="path1991" />
      <path
         d="m 104.70393,11.455999 q 0,0.288 -0.416,0.672 -0.384,0.352 -0.672,0.352 -0.224,0 -0.448,-0.192 -0.192,-0.192 -0.448,-0.544 -0.224,-0.32 -0.608,-0.544 -0.352,-0.224 -0.736,-0.224 -0.928,0 -2.496003,2.464 -1.568,2.432 -3.072,6.144 0.032,0.736 0.096,1.856 0.096,1.12 0.128,1.664 l 0.096,1.28 q 0,0.448 -0.192,0.768 -0.192,0.352 -0.704,0.352 -0.544,0 -0.704,-1.44 -0.16,-1.472 -0.192,-4.256 -0.032,-0.704 -0.064,-2.016 0,-1.312 -0.064,-3.136 -0.096,-2.752 -0.096,-3.936 0,-0.7359995 0.896,-0.7359995 0.544,0 0.64,0.4799995 0.128,0.448 0.128,1.76 v 5.088 q 0.96,-2.464 2.08,-4.256 1.12,-1.792 2.176003,-2.72 1.088,-0.9599995 1.92,-0.9599995 0.704,0 1.344,0.32 0.64,0.3199995 1.024,0.8319995 0.384,0.48 0.384,0.928 z"
         style="font-style:normal;font-variant:normal;font-weight:normal;font-stretch:normal;font-size:32px;font-family:'Ink Free';-inkscape-font-specification:'Ink Free';fill:#ffffff"
         id="path1993" />
      <path
         d="m 118.07991,18.303999 q 0,1.248 -0.928,2.88 -0.928,1.632 -2.624,2.816 -1.696,1.152 -3.872,1.152 -2.144,0 -3.168,-1.184 -1.024,-1.184 -1.024,-2.944 0,-1.536 0.544,-3.808 0.576,-2.272 1.6,-4.064 0.064,-0.128 0.512,-0.928 0.48,-0.832 1.056,-1.248 0.576,-0.448 1.216,-0.448 0.288,0 0.512,0.16 0.256,0.128 0.256,0.352 0,0.064 -0.192,0.32 -0.16,0.224 -0.256,0.352 -1.088,1.312 -1.76,2.592 -0.896,1.632 -1.408,3.232 -0.48,1.6 -0.48,3.488 0,2.528 3.072,2.528 1.44,0 2.656,-0.832 1.248,-0.832 1.984,-2.016 0.736,-1.216 0.736,-2.208 0,-1.12 -0.736,-1.952 -0.736,-0.832 -2.016,-1.76 -0.832,-0.608 -1.216,-0.992 -0.384,-0.384 -0.384,-0.64 0,-0.384 0.544,-0.608 0.544,-0.256 1.28,-0.256 0.416,0 0.544,0.064 0.128,0.032 0.128,0.16 0,0.064 -0.128,0.224 -0.096,0.128 -0.096,0.224 0,0.096 0.64,0.64 1.28,1.056 2.144,2.144 0.864,1.088 0.864,2.56 z"
         style="font-style:normal;font-variant:normal;font-weight:normal;font-stretch:normal;font-size:32px;font-family:'Ink Free';-inkscape-font-specification:'Ink Free';fill:#ffffff"
         id="path1995" />
    </g>
  </g>
</svg>
